# AST/ASF file generated using VICON BodyLanguage
# -----------------------------------------------
:version 1.10
:name VICON
:units
  mass 1.0
  length 0.45
  angle deg
:documentation
   .ast/.asf automatically generated from VICON data using
   VICON BodyBuilder and BodyLanguage model FoxedUp or BRILLIANT.MOD
:root
   order TX TY TZ RX RY RZ
   axis XYZ
   position 0 0 0  
   orientation 0 0 0 
:bonedata
  begin
     id 1 
     name lhipjoint
     direction 0.650112 -0.723553 0.232005 
     length 2.45805 
     axis 0 0 0  XYZ
  end
  begin
     id 2 
     name lfemur
     direction 0.34202 -0.939693 0  
     length 7.00073  
     axis 0 0 20  XYZ
    dof rx ry rz
    limits (-160.0 20.0)
           (-70.0 70.0)
           (-60.0 70.0)
  end
  begin
     id 3 
     name ltibia
     direction 0.34202 -0.939693 0   
     length 7.8748   
     axis 0 0 20   XYZ
    dof rx
    limits (-10.0 170.0)
  end
  begin
     id 4 
     name lfoot
     direction 0.0542825 -0.14914 0.987325   
     length 1.75978   
     axis -90 7.62852e-016 20   XYZ
    dof rx rz
    limits (-45.0 90.0)
           (-70.0 20.0)
  end
  begin
     id 5 
     name ltoes
     direction 1.53509e-011 -4.21906e-011 1   
     length 0.893912   
     axis -90 7.62852e-016 20   XYZ
    dof rx
    limits (-90.0 20.0)
  end
  begin
     id 6 
     name rhipjoint
     direction -0.637897 -0.733345 0.235145   
     length 2.42522  
     axis 0 0 0  XYZ 
  end
  begin
     id 7 
     name rfemur
     direction -0.34202 -0.939693 0   
     length 7.02549   
     axis 0 0 -20   XYZ
    dof rx ry rz
    limits (-160.0 20.0)
           (-70.0 70.0)
           (-70.0 60.0)
  end
  begin
     id 8 
     name rtibia
     direction -0.34202 -0.939693 0   
     length 7.71512   
     axis 0 0 -20   XYZ
    dof rx
    limits (-10.0 170.0)
 end
 begin
     id 9 
     name rfoot
     direction -0.0822618 -0.226012 0.970645   
     length 1.90014  
     axis -90 -7.62852e-016 -20   XYZ
    dof rx rz
    limits (-45.0 90.0)
           (-20.0 70.0)
  end
  begin
     id 10 
     name rtoes
     direction -1.53542e-011 -4.21872e-011 1   
     length 0.957341   
     axis -90 -7.62852e-016 -20   XYZ
    dof rx
    limits (-90.0 20.0)
  end
  begin
     id 11 
     name lowerback
     direction -0.0022947 0.999774 -0.0211557   
     length 1.89909   
     axis 0 0 0   XYZ
    dof rx ry rz
    limits (-20.0 45.0)
           (-30.0 30.0)
           (-30.0 30.0)
  end
  begin
     id 12 
     name upperback
     direction 0.0107737 0.998635 0.0511027   
     length 1.8853   
     axis 0 0 0   XYZ
    dof rx ry rz
    limits (-20.0 45.0)
           (-30.0 30.0)
           (-30.0 30.0)
  end
  begin
     id 13 
     name thorax
     direction 0.011824 0.998136 0.0598754   
     length 1.88911   
     axis 0 0 0   XYZ
    dof rx ry rz
    limits (-20.0 45.0)
           (-30.0 30.0)
           (-30.0 30.0)
  end
  begin
     id 14 
     name lowerneck
     direction -0.0685355 0.990319 0.120714   
     length 1.91222   
     axis 0 0 0   XYZ
    dof rx ry rz
    limits (-20.0 45.0)
           (-30.0 30.0)
           (-30.0 30.0)
  end
  begin
     id 15 
     name upperneck
     direction 0.0886204 0.955665 -0.280805   
     length 1.92526   
     axis 0 0 0   XYZ
    dof rx ry rz
    limits (-20.0 45.0)
           (-30.0 30.0)
           (-30.0 30.0)
  end
  begin
     id 16
     name head
     direction 0.0233423 0.993502 -0.111393  
     length 1.96056  
     axis 0 0 0   XYZ
    dof rx ry rz
    limits (-20.0 45.0)
           (-30.0 30.0)
           (-30.0 30.0)
  end
  begin
     id 17 
     name lclavicle
     direction 0.941873 0.32922 0.0670041  
     length 3.31705  
     axis 0 0 0   XYZ
    dof ry rz
    limits (-20.0 10.0)
           (0.0 20.0)
  end
  begin
     id 18 
     name lhumerus
     direction 1 -4.4898e-011 3.38707e-028   
     length 5.29277   
     axis 180 -30 -90   XYZ
    dof rx ry rz
    limits (-60.0 90.0)
           (-90.0 90.0)
           (-90.0 90.0)
  end
  begin
     id 19
     name lradius
     direction 1 -4.48952e-011 1.63213e-028   
     length 2.85226   
     axis 180 -30 -90   XYZ
    dof rx
    limits (-10.0 170.0)
  end
  begin
     id 20
     name lwrist
     direction 1 -4.49001e-011 1.27856e-027   
     length 1.42613   
     axis -1.61767e-015 90 90   XYZ
    dof ry
    limits (-180.0 0.0)
 end
  begin
     id 21 
     name lhand
     direction 1 -4.48976e-011 2.55931e-027   
     length 0.602097   
     axis -1.63363e-015 90 90   XYZ
    dof rx rz
    limits (-90.0 90.0)
           (-45.0 45.0)
  end
  begin
     id 22 
     name lfingers
     direction 1 -4.48986e-011 5.11684e-027   
     length 0.485426   
     axis -3.26723e-015 90 90   XYZ
    dof rx
    limits (0.0 90.0)
  end
  begin
     id 23
     name lthumb
     direction 0.707107 -6.34915e-011 0.707107   
     length 0.696978   
     axis -90 45 -2.25915e-014   XYZ
    dof rx rz
    limits (-45.0 45.0)
           (-45.0 45.0)
  end
  begin
     id 24 
     name rclavicle
     direction -0.939974 0.327078 0.0973096   
     length 3.10337  
     axis 0 0 0   XYZ 
    dof ry rz
    limits (-10.0 20.0)
           (-20.0 0.0)
  end
  begin
     id 25 
     name rhumerus
     direction -1 -4.48975e-011 1.83745e-027  
     length 5.13304   
     axis 180 30 90   XYZ
    dof rx ry rz
    limits (-90.0 60.0)
           (-90.0 90.0)
           (-90.0 90.0)
  end
  begin
     id 26 
     name rradius
     direction -1 -4.48977e-011 7.1775e-029   
     length 2.74305   
     axis 180 30 90   XYZ
    dof rx
    limits (-10.0 170.0)
  end
  begin
     id 27 
     name rwrist
     direction -1 -4.48977e-011 1.27963e-027   
     length 1.37152   
     axis -1.61767e-015 -90 -90   XYZ
    dof ry
    limits (-180.0 0.0)
  end
  begin
     id 28
     name rhand
     direction -1 -4.4888e-011 2.56782e-027   
     length 0.767976   
     axis -1.63363e-015 -90 -90   XYZ
    dof rx rz
    limits (-90.0 90.0)
           (-45.0 45.0)
  end
  begin
     id 29
     name rfingers
     direction -1 -4.48947e-011 5.12384e-027   
     length 0.619162   
     axis -3.26723e-015 -90 -90   XYZ
    dof rx
    limits (0.0 90.0)
  end
  begin
     id 30
     name rthumb
     direction -0.707107 -6.34857e-011 0.707107   
     length 0.888997   
     axis -90 -45 2.25915e-014   XYZ
    dof rx rz
    limits (-45.0 45.0)
           (-45.0 45.0)
  end
:hierarchy
  begin
    root lhipjoint rhipjoint lowerback
    lhipjoint lfemur
    lfemur ltibia
    ltibia lfoot
    lfoot ltoes
    rhipjoint rfemur
    rfemur rtibia
    rtibia rfoot
    rfoot rtoes
    lowerback upperback
    upperback thorax
    thorax lowerneck lclavicle rclavicle
    lowerneck upperneck
    upperneck head
    lclavicle lhumerus
    lhumerus lradius
    lradius lwrist
    lwrist lhand lthumb
    lhand lfingers
    rclavicle rhumerus
    rhumerus rradius
    rradius rwrist
    rwrist rhand rthumb
    rhand rfingers
  end

#!OML:ASF F:\VICON\USERDATA\INSTALL\rory3\rory3.ASF
:FULLY-SPECIFIED
:DEGREES
185
root 0.73903 17.2184 0.326191 6.13144 30.2362 4.9014
lowerback -3.91536 0.322151 1.39222
upperback -7.85549 0.587431 1.45852
thorax -5.9635 0.298947 0.726754
lowerneck -7.7274 -10.3744 -17.2695
upperneck 22.0072 -15.5943 16.2065
head 11.0667 -7.14349 6.6767
rclavicle 2.50469e-014 4.77083e-015
rhumerus -29.6893 4.81911 -93.4709
rradius 129.876
rwrist 36.251
rhand 41.3567 10.0046
rfingers 7.12502
rthumb 63.5099 0.527005
lclavicle 2.50469e-014 4.77083e-015
lhumerus -15.3283 -20.3953 100.534
lradius 118.055
lwrist -14.9409
lhand 37.1076 44.3587
lfingers 7.12502
lthumb 59.9574 58.1837
rfemur 1.71006 -2.69145 16.2554
rtibia 17.1419
rfoot -21.3947 -28.5748
rtoes -6.55592
lfemur -11.0808 -23.1302 -22.657
ltibia 21.4263
lfoot -12.6629 -10.2565
ltoes -8.67387
186
root 0.733713 17.2166 0.328163 6.09214 30.5074 4.83648
lowerback -3.89067 0.304953 1.40347
upperback -7.85581 0.563353 1.41205
thorax -5.97711 0.284828 0.672275
lowerneck -7.76948 -10.3762 -17.3341
upperneck 22.0638 -15.5937 16.2328
head 11.1048 -7.1433 6.69806
rclavicle 1.33186e-013 2.8625e-014
rhumerus -29.6172 4.98555 -93.5471
rradius 129.893
rwrist 36.1824
rhand 41.3204 10.017
rfingers 7.12502
rthumb 63.4803 0.49699
lclavicle 1.33186e-013 2.8625e-014
lhumerus -15.726 -20.4625 100.693
lradius 118.079
lwrist -14.8504
lhand 37.0445 44.4178
lfingers 7.12502
lthumb 59.9034 58.2991
rfemur 1.92968 -2.81105 16.3912
rtibia 16.8277
rfoot -21.3386 -28.7148
rtoes -6.27528
lfemur -11.2354 -23.2377 -22.5467
ltibia 21.667
lfoot -12.7547 -10.421
ltoes -8.50704
187
root 0.731939 17.2181 0.328917 5.67472 30.7565 4.2326
lowerback -3.73817 0.316823 1.92479
upperback -7.83835 0.587693 1.49296
thorax -6.04359 0.269132 0.464014
lowerneck -7.76427 -10.368 -17.4095
upperneck 22.0838 -15.5856 16.2856
head 11.1219 -7.14113 6.73373
rclavicle -6.24184e-014 -1.90833e-014
rhumerus -29.6082 5.18439 -93.5888
rradius 129.975
rwrist 36.0926
rhand 41.3623 9.79651
rfingers 7.12502
rthumb 63.5144 0.325308
lclavicle -6.24184e-014 -1.90833e-014
lhumerus -15.9907 -20.4782 100.843
lradius 118.102
lwrist -14.7504
lhand 37.0871 44.6063
lfingers 7.12502
lthumb 59.9398 58.4496
rfemur 2.24462 -2.8613 17.0356
rtibia 16.4958
rfoot -21.193 -28.9172
rtoes -6.36983
lfemur -11.2892 -23.3312 -21.9744
ltibia 21.9401
lfoot -12.794 -10.5934
ltoes -8.01535
188
root 0.72992 17.2185 0.328562 5.37977 30.9528 3.8409
lowerback -3.60825 0.335725 2.26585
upperback -7.81125 0.617503 1.49943
thorax -6.08696 0.2639 0.279044
lowerneck -7.70613 -10.3741 -17.4083
upperneck 22.0298 -15.6084 16.3364
head 11.0998 -7.15042 6.74985
rclavicle -5.84427e-014 -1.98785e-014
rhumerus -29.6434 5.27749 -93.615
rradius 130.098
rwrist 35.9604
rhand 41.3817 9.65276
rfingers 7.12502
rthumb 63.5302 0.204278
lclavicle -5.84427e-014 -1.98785e-014
lhumerus -16.089 -20.5283 100.925
lradius 118.1
lwrist -14.6154
lhand 37.1864 44.826
lfingers 7.12502
lthumb 60.0247 58.5803
rfemur 2.50347 -2.95656 17.4513
rtibia 16.2142
rfoot -21.1109 -29.0222
rtoes -6.30634
lfemur -11.357 -23.3666 -21.6089
ltibia 22.2093
lfoot -12.8234 -10.7703
ltoes -7.70524
189
root 0.725831 17.218 0.329155 5.3271 31.1007 3.73129
lowerback -3.61309 0.31639 2.2766
upperback -7.79629 0.592034 1.51615
thorax -6.06859 0.251448 0.290857
lowerneck -7.67192 -10.3375 -17.4834
upperneck 21.9916 -15.5374 16.3246
head 11.0701 -7.12806 6.77038
rclavicle -4.47266e-014 -1.11319e-014
rhumerus -29.5987 5.45062 -93.5805
rradius 130.116
rwrist 35.8363
rhand 41.293 9.72419
rfingers 7.12502
rthumb 63.458 0.172392
lclavicle -4.47266e-014 -1.11319e-014
lhumerus -16.1177 -20.4371 101.043
lradius 118.064
lwrist -14.5949
lhand 37.474 45.0299
lfingers 7.12502
lthumb 60.2702 58.5234
rfemur 2.63301 -3.07067 17.5895
rtibia 15.9785
rfoot -20.9923 -29.0499
rtoes -5.93425
lfemur -11.539 -23.3682 -21.4692
ltibia 22.4832
lfoot -12.8527 -10.9558
ltoes -7.62035
